<?xml version="1.0" standalone="no"?>
<!DOCTYPE svg PUBLIC "-//W3C//DTD SVG 20010904//EN" "http://www.w3.org/TR/2001/REC-SVG-20010904/DTD/svg10.dtd">
<svg version="1.0" xmlns="http://www.w3.org/2000/svg"
 width="443.8000000pt" height="231.2000000pt" viewBox="0 0 4438.000000 2312.000000"
 preserveAspectRatio="xMidYMid meet">
	<defs xmlns="http://www.w3.org/2000/svg">
		<linearGradient id="grad" x1="0%" y1="1000%" x2="1000%" y2="0%" gradientUnits="userSpaceOnUse">
			<stop offset="0%" style="stop-color:rgb(23,49,137);stop-opacity:1"/>
			<stop offset="100%" style="stop-color:rgb(16,182,133);stop-opacity:1"/>
		</linearGradient>
		<style type="text/css">
			g, path {fill:url(#grad);}
		</style>
	</defs>
	<g transform="translate(0.000000,2312.000000) scale(0.100000,-0.100000)"
	fill="#000000" stroke="none">
	<path d="M36199 23105 c84 -37 212 -150 313 -275 104 -131 243 -370 353 -608
	384 -837 769 -2289 866 -3272 8 -78 13 -296 13 -580 1 -377 -2 -478 -16 -590
	-32 -245 -61 -430 -68 -430 -3 0 -15 35 -25 78 -22 96 -81 270 -129 382 -309
	724 -1043 1170 -1921 1170 -261 0 -442 -29 -674 -105 -220 -74 -417 -180 -626
	-338 -104 -79 -331 -306 -427 -427 -281 -355 -522 -815 -619 -1184 -149 -567
	-184 -1235 -138 -2586 19 -546 3 -882 -57 -1180 -122 -614 -407 -1040 -984
	-1469 -149 -112 -422 -295 -674 -451 -176 -110 -195 -125 -172 -131 60 -16
	666 -32 1006 -26 379 7 535 15 885 47 1363 125 2658 494 4285 1223 310 139
	509 235 710 342 1125 602 1815 1272 2173 2111 264 617 349 1281 242 1894 -22
	129 -85 368 -135 520 -105 316 -249 630 -518 1130 -268 498 -342 693 -342 900
	0 113 15 182 68 312 135 328 348 485 747 550 119 19 480 16 635 -5 350 -49
	676 -110 1485 -278 887 -185 1088 -221 1247 -223 58 0 109 2 114 6 12 12 -17
	38 -75 68 -153 76 -475 188 -1476 510 -1070 344 -1410 464 -1640 575 -113 54
	-139 71 -188 125 -120 129 -173 229 -277 515 -115 319 -187 454 -352 657 -221
	273 -441 456 -718 597 -422 215 -825 298 -1795 371 -655 49 -936 71 -1015 80
	-111 13 -122 12 -81 -5z"/>
	<path d="M7850 13335 l0 -945 1000 0 1000 0 0 945 0 945 -1000 0 -1000 0 0
	-945z"/>
	<path d="M26670 7130 l0 -7130 960 0 960 0 0 4093 c0 2704 4 4123 10 4182 42
	367 200 528 557 566 165 17 1075 6 1168 -14 223 -49 301 -128 341 -347 11 -62
	13 -778 14 -4277 l0 -4203 960 0 960 0 -3 4398 c-2 4139 -4 4404 -20 4512 -40
	260 -94 444 -182 625 -143 292 -356 506 -650 650 -194 95 -403 155 -680 196
	-114 17 -1224 24 -1370 9 -367 -37 -633 -154 -833 -364 -107 -113 -165 -208
	-260 -426 -8 -18 -11 622 -11 2318 l-1 2342 -960 0 -960 0 0 -7130z"/>
	<path d="M7 13344 c-4 -4 -7 -3008 -7 -6676 l0 -6668 960 0 960 0 0 2580 0
	2579 1398 4 c1371 3 1399 3 1527 24 394 65 670 169 895 339 181 136 305 287
	410 499 120 241 173 450 200 789 14 174 14 4689 0 4876 -29 385 -123 696 -285
	942 -86 131 -264 309 -389 392 -238 157 -540 256 -919 303 -117 14 -387 17
	-2437 20 -1268 2 -2309 1 -2313 -3z m4096 -1577 c160 -39 243 -101 286 -214
	53 -137 52 -87 48 -2350 -3 -1942 -4 -2103 -20 -2167 -21 -84 -47 -144 -82
	-190 -58 -76 -181 -127 -350 -146 -54 -6 -485 -10 -1077 -10 l-988 0 0 2550 0
	2551 1058 -4 c940 -3 1064 -5 1125 -20z"/>
	<path d="M7890 5200 l0 -5200 960 0 960 0 0 5200 0 5200 -960 0 -960 0 0
	-5200z"/>
	<path d="M13230 10389 c-704 -66 -1192 -346 -1438 -825 -98 -192 -152 -363
	-194 -614 l-23 -135 0 -3620 c0 -3448 1 -3625 18 -3735 98 -619 357 -1004 837
	-1245 177 -89 439 -162 705 -197 78 -10 390 -13 1440 -13 1239 0 1349 1 1460
	18 348 52 635 150 846 290 388 255 604 641 680 1217 8 55 13 378 16 918 l4
	832 -950 0 -951 0 0 -634 c0 -518 -3 -649 -15 -719 -40 -227 -115 -307 -335
	-354 -77 -16 -145 -18 -745 -18 -692 0 -723 2 -852 46 -136 46 -198 133 -234
	329 -12 63 -14 602 -14 3275 0 2970 1 3206 17 3283 44 215 125 295 343 339 81
	16 152 18 740 18 560 0 661 -3 730 -17 170 -34 250 -83 298 -181 61 -125 60
	-119 64 -854 l4 -673 950 0 950 0 -4 823 c-5 860 -6 893 -53 1125 -160 800
	-708 1241 -1644 1322 -137 12 -2524 11 -2650 -1z"/>
	<path d="M20720 10389 c-704 -66 -1192 -346 -1438 -825 -98 -192 -152 -363
	-194 -614 l-23 -135 0 -3620 c0 -3448 1 -3625 18 -3735 98 -619 357 -1004 837
	-1245 177 -89 439 -162 705 -197 78 -10 390 -13 1440 -13 1239 0 1349 1 1460
	18 348 52 635 150 846 290 388 255 604 641 680 1217 8 55 13 378 16 918 l4
	832 -950 0 -951 0 0 -634 c0 -518 -3 -649 -15 -719 -40 -227 -115 -307 -335
	-354 -77 -16 -145 -18 -745 -18 -692 0 -723 2 -852 46 -136 46 -198 133 -234
	329 -12 63 -14 602 -14 3275 0 2970 1 3206 17 3283 44 215 125 295 343 339 81
	16 152 18 740 18 560 0 661 -3 730 -17 170 -34 250 -83 298 -181 61 -125 60
	-119 64 -854 l4 -673 950 0 950 0 -4 823 c-5 860 -6 893 -53 1125 -160 800
	-708 1241 -1644 1322 -137 12 -2524 11 -2650 -1z"/>
	<path d="M34460 5200 l0 -5200 960 0 960 0 0 5200 0 5200 -960 0 -960 0 0
	-5200z"/>
	<path d="M39850 10394 c-372 -38 -590 -94 -835 -214 -165 -82 -275 -161 -400
	-291 -233 -241 -358 -524 -433 -974 -15 -92 -17 -398 -20 -3640 -2 -2538 0
	-3577 8 -3670 31 -364 127 -668 287 -909 84 -127 244 -289 371 -375 240 -163
	559 -267 936 -307 122 -12 358 -14 1567 -11 1399 3 1426 3 1555 24 649 106
	1049 363 1283 823 94 184 148 361 188 620 17 109 18 302 18 3720 0 3430 -1
	3611 -18 3725 -36 240 -87 416 -172 592 -75 157 -162 281 -280 398 -259 258
	-576 397 -1090 476 -60 10 -430 13 -1505 14 -784 1 -1441 1 -1460 -1z m2284
	-1527 c234 -56 314 -160 345 -449 15 -130 15 -6302 1 -6438 -30 -285 -108
	-389 -335 -447 -64 -17 -134 -18 -885 -18 -905 0 -884 -1 -1013 67 -98 53
	-149 143 -179 320 -10 58 -13 748 -13 3298 0 3100 1 3229 19 3323 45 242 137
	323 406 357 36 4 407 7 825 6 668 -2 768 -4 829 -19z"/>
	</g>
</svg>
